<?xml version="1.0" standalone="no"?>
<!DOCTYPE svg PUBLIC "-//W3C//DTD SVG 20010904//EN"
 "http://www.w3.org/TR/2001/REC-SVG-20010904/DTD/svg10.dtd">
<svg version="1.0" xmlns="http://www.w3.org/2000/svg"
 width="720.000000pt" height="720.000000pt" viewBox="0 0 720.000000 720.000000"
 preserveAspectRatio="xMidYMid meet">
<metadata>
Created by potrace 1.14, written by Peter Selinger 2001-2017
</metadata>
<g transform="translate(0.000000,720.000000) scale(0.100000,-0.100000)"
fill="#000000" stroke="none">
<path d="M0 3600 l0 -3600 3600 0 3600 0 0 3600 0 3600 -3600 0 -3600 0 0
-3600z m3056 2965 c-15 -19 -31 -35 -37 -35 -5 0 -9 -9 -9 -20 0 -11 -6 -20
-14 -20 -12 0 -86 -77 -153 -160 -15 -19 -42 -50 -59 -70 -54 -61 -174 -228
-174 -242 0 -7 -29 -56 -65 -109 -36 -54 -90 -144 -119 -201 -60 -117 -93
-177 -108 -196 -6 -7 -8 -15 -6 -18 3 -3 25 13 49 36 24 23 64 55 89 72 41 27
39 25 -15 -23 -150 -136 -321 -345 -386 -474 -18 -36 -34 -63 -36 -61 -10 10
77 160 154 265 47 64 102 150 123 191 100 199 326 572 460 760 155 219 237
311 252 287 5 -8 8 -4 8 10 0 25 50 66 64 53 5 -5 -2 -24 -18 -45z m1344 -283
c49 -74 90 -139 90 -145 0 -19 -58 44 -71 77 -7 17 -23 45 -36 62 -13 17 -23
36 -23 42 0 7 -3 12 -8 12 -4 0 -16 16 -26 35 -11 19 -22 35 -26 35 -4 0 -10
8 -13 18 -4 9 -14 28 -23 42 -53 82 61 -68 136 -178z m-1386 81 c-4 -16 -16
-41 -28 -58 -12 -16 -34 -55 -49 -85 -16 -30 -40 -71 -54 -90 -15 -21 -7 -15
21 15 54 59 61 49 11 -15 -93 -120 -175 -259 -175 -296 0 -19 -68 -92 -102
-110 -34 -17 -37 -3 -5 23 12 10 29 27 37 38 14 19 14 19 -3 6 -9 -8 -20 -12
-22 -9 -6 6 103 226 132 264 13 17 23 34 23 38 0 3 22 34 48 69 56 72 112 155
112 165 0 7 52 72 58 72 1 0 -1 -12 -4 -27z m1256 -238 c5 -14 19 -46 31 -73
13 -26 23 -62 23 -79 0 -23 5 -33 16 -34 10 0 11 -2 3 -6 -17 -6 -17 -40 0
-50 6 -4 25 -25 41 -46 16 -22 73 -82 128 -135 95 -92 168 -182 148 -182 -5 0
-28 23 -52 51 -67 80 -175 189 -187 189 -6 0 -11 4 -11 9 0 5 -20 31 -44 57
-24 27 -47 60 -51 74 -4 14 -13 32 -21 40 -7 9 -15 41 -18 73 -2 31 -12 71
-20 89 -19 36 -20 48 -6 48 6 0 15 -11 20 -25z m296 -111 c25 -47 44 -88 41
-90 -7 -8 -56 70 -69 110 -6 17 -17 38 -24 47 -16 18 -19 33 -4 24 5 -3 30
-44 56 -91z m-1703 -108 c-4 -7 -27 -35 -51 -62 -41 -46 -43 -47 -36 -19 8 36
2 28 49 64 46 34 49 36 38 17z m1806 -80 c23 -36 25 -46 13 -46 -7 0 -42 63
-42 75 0 12 10 2 29 -29z m51 -111 c0 -5 -5 -3 -10 5 -5 8 -10 20 -10 25 0 6
5 3 10 -5 5 -8 10 -19 10 -25z m30 -53 c0 -15 -2 -15 -10 -2 -13 20 -13 33 0
25 6 -3 10 -14 10 -23z m99 -277 c23 -77 59 -169 79 -205 65 -116 94 -183 114
-263 23 -91 18 -117 -6 -30 -9 32 -21 74 -27 93 -37 113 -177 349 -244 410
-15 14 -36 39 -48 55 -20 28 -20 29 -2 15 11 -8 32 -28 47 -45 28 -31 39 -23
13 11 -8 10 -14 28 -14 39 0 17 3 16 24 -10 31 -38 31 -24 0 69 -14 41 -25 80
-24 88 1 27 48 -91 88 -227z m-89 114 c0 -5 -4 -9 -10 -9 -5 0 -10 7 -10 16 0
8 5 12 10 9 6 -3 10 -10 10 -16z m-2764 -520 c-18 -41 -21 -26 -4 22 6 18 13
29 15 23 2 -6 -3 -26 -11 -45z m-24 -71 c-8 -8 -9 -4 -5 13 4 13 8 18 11 10 2
-7 -1 -18 -6 -23z m3095 -120 c-3 -8 -6 -5 -6 6 -1 11 2 17 5 13 3 -3 4 -12 1
-19z m10 -70 c-3 -8 -6 -5 -6 6 -1 11 2 17 5 13 3 -3 4 -12 1 -19z m0 -60 c-3
-8 -6 -5 -6 6 -1 11 2 17 5 13 3 -3 4 -12 1 -19z m178 -1118 l20 -9 -20 0
c-11 0 -29 4 -40 9 l-20 9 20 0 c11 0 29 -4 40 -9z m60 -20 c8 -13 -5 -13 -25
0 -13 8 -13 10 2 10 9 0 20 -4 23 -10z m201 -53 c67 -38 252 -219 260 -254 3
-15 19 -49 35 -74 16 -25 29 -57 29 -70 0 -13 10 -48 23 -78 16 -40 19 -55 10
-58 -7 -3 -13 -16 -13 -31 0 -14 -7 -33 -15 -42 -10 -11 -16 -48 -19 -120 -2
-58 -5 -114 -5 -125 -1 -17 -3 -18 -11 -5 -9 13 -11 13 -19 0 -6 -8 -13 -11
-17 -7 -4 3 -1 13 6 22 10 13 9 15 -9 15 -16 0 -21 -6 -21 -25 0 -14 -5 -25
-11 -25 -6 0 -8 -8 -4 -19 4 -14 0 -21 -15 -26 -27 -9 -36 0 -21 18 11 14 18
63 25 188 3 57 22 115 46 139 15 15 39 70 45 103 9 46 -7 69 -41 61 -33 -9
-30 2 7 21 38 20 31 31 -11 17 -37 -13 -31 4 7 19 37 14 19 29 -23 17 -37 -10
-59 -3 -36 11 22 13 26 75 7 115 -15 31 -117 116 -160 132 -14 6 -89 -63 -106
-96 -7 -14 -18 -43 -26 -65 l-13 -40 6 45 c3 25 19 85 35 134 23 68 27 92 18
102 -15 18 7 19 37 1z m-3915 -39 c47 -52 52 -75 12 -54 -41 21 -77 62 -70 80
9 23 16 20 58 -26z m-121 8 c0 -3 -23 -31 -51 -63 -57 -65 -112 -167 -130
-239 -11 -49 -60 -135 -66 -117 -5 14 93 241 124 287 24 37 111 136 119 136 2
0 4 -2 4 -4z m-7 -86 c-3 -13 5 -33 22 -56 15 -19 24 -38 21 -42 -4 -3 -27 1
-51 10 -44 17 -45 16 -56 -4 -6 -12 -9 -45 -7 -75 4 -45 2 -56 -14 -64 -10 -5
-18 -17 -18 -26 0 -13 -3 -14 -12 -5 -9 9 -9 18 0 37 8 18 9 32 2 44 -9 18 -2
38 51 131 18 32 50 70 60 70 4 0 5 -9 2 -20z m-96 -373 c-21 -8 -57 -1 -57 12
0 3 12 21 28 39 l27 32 11 -38 c10 -33 9 -38 -9 -45z m-67 1 c0 -22 -17 -41
-29 -34 -8 5 -8 13 -1 27 12 21 30 26 30 7z m-95 -68 c-4 -12 -9 -19 -12 -17
-3 3 -2 15 2 27 4 12 9 19 12 17 3 -3 2 -15 -2 -27z m4754 -164 c17 -42 31
-80 31 -84 -2 -21 -90 180 -90 202 1 17 25 -32 59 -118z m-4779 -14 c0 -60 26
-178 49 -224 12 -24 26 -74 32 -113 17 -110 18 -114 39 -135 16 -16 18 -25 10
-45 -6 -15 -10 -39 -10 -55 0 -35 -9 -60 -21 -60 -5 0 -7 20 -5 45 2 27 -2 57
-9 73 -8 15 -15 52 -16 82 -4 68 -20 140 -47 205 -34 82 -58 286 -32 270 6 -3
10 -23 10 -43z m4844 -267 c1 -96 -3 -119 -26 -183 -24 -64 -26 -79 -18 -120
6 -26 13 -114 16 -197 6 -130 10 -156 30 -197 17 -33 24 -65 24 -102 0 -30 7
-85 16 -123 24 -99 26 -141 8 -174 l-15 -30 69 -82 c123 -146 178 -229 196
-297 4 -14 -8 2 -26 35 -64 115 -118 186 -234 306 -66 69 -84 95 -89 125 -14
87 -18 100 -33 117 -14 15 -14 17 1 17 11 0 17 8 17 23 0 40 12 68 26 63 11
-4 13 1 8 19 -5 19 -2 25 9 25 14 0 15 4 2 39 -25 73 -60 126 -122 189 -35 34
-65 73 -69 86 -8 32 13 71 30 57 17 -15 26 -4 26 32 0 16 7 35 15 41 8 6 17
26 19 45 2 18 8 36 13 40 21 14 52 81 73 156 22 78 24 161 5 245 -4 18 0 15
12 -10 12 -26 17 -63 17 -145z m-317 33 c-3 -8 -6 -5 -6 6 -1 11 2 17 5 13 3
-3 4 -12 1 -19z m-4534 -28 c-5 -19 -23 -39 -23 -25 0 9 20 45 24 45 2 0 2 -9
-1 -20z m-51 -152 c-7 -7 -12 -8 -12 -2 0 14 12 26 19 19 2 -3 -1 -11 -7 -17z
m-15 -40 c-3 -8 -6 -5 -6 6 -1 11 2 17 5 13 3 -3 4 -12 1 -19z m-19 -88 c-5
-17 -15 -33 -21 -37 -7 -4 -8 0 -4 11 4 10 10 29 13 42 3 13 10 22 14 19 5 -3
4 -19 -2 -35z m-28 -123 c-7 -44 -5 -65 7 -96 9 -23 19 -41 23 -41 4 0 7 -39
8 -87 3 -123 11 -175 28 -169 10 4 12 -6 10 -42 -5 -61 -5 -62 -14 -62 -13 0
-65 244 -81 380 -7 58 -1 129 14 169 11 30 14 2 5 -52z m4631 -333 c18 -20 64
-59 102 -86 37 -28 67 -52 67 -55 0 -7 -62 28 -109 62 -42 30 -60 48 -100 98
-25 32 5 17 40 -19z m-1481 -328 c112 -10 270 -38 264 -47 -2 -4 40 -5 93 -2
69 3 94 1 83 -6 -15 -11 -17 -9 36 -26 8 -3 28 2 44 10 47 24 120 18 120 -11
0 -7 6 -17 13 -21 12 -8 72 -147 72 -168 0 -5 -21 -10 -47 -10 -40 -1 -55 -7
-107 -48 -38 -29 -71 -47 -89 -47 -15 0 -71 -18 -124 -39 -54 -21 -98 -35 -98
-30 0 5 -7 9 -15 9 -9 0 -38 13 -66 29 -48 27 -56 28 -134 23 -95 -5 -87 -14
-105 110 -12 83 -38 179 -64 240 -9 21 -16 39 -16 40 0 4 54 2 140 -6z m-3341
-107 c-7 -19 -18 -47 -25 -64 -12 -29 -13 -29 -13 -5 -1 35 16 92 31 101 18
11 19 7 7 -32z m5313 -256 c17 -35 28 -67 26 -72 -1 -5 -24 35 -50 88 -28 56
-39 85 -26 71 11 -14 34 -53 50 -87z m-5455 -485 c-3 -7 -5 -2 -5 12 0 14 2
19 5 13 2 -7 2 -19 0 -25z"/>
<path d="M5925 2001 c-3 -5 -1 -12 5 -16 5 -3 10 1 10 9 0 18 -6 21 -15 7z"/>
<path d="M6020 1443 c1 -47 26 -86 40 -63 5 8 10 20 10 25 0 12 -38 75 -45 75
-3 0 -5 -17 -5 -37z"/>
<path d="M4810 1296 c0 -9 40 -13 46 -5 3 5 -6 9 -20 9 -14 0 -26 -2 -26 -4z"/>
</g>
</svg>
